<?xml version="1.0" encoding="UTF-8" standalone="no"?>
<!DOCTYPE svg PUBLIC "-//W3C//DTD SVG 1.1//EN"
 "http://www.w3.org/Graphics/SVG/1.1/DTD/svg11.dtd">
<!-- Generated by graphviz version 15.1.0 (20260618.0150)
 -->
<!-- Title: G Pages: 1 -->
<svg width="735pt" height="939pt"
 viewBox="0.00 0.00 735.00 939.00" xmlns="http://www.w3.org/2000/svg" xmlns:xlink="http://www.w3.org/1999/xlink">
<g id="graph0" class="graph" transform="scale(1 1) rotate(0) translate(4 935)">
<title>G</title>
<polygon fill="white" stroke="none" points="-4,4 -4,-935 730.95,-935 730.95,4 -4,4"/>
<g id="clust1" class="cluster">
<title>clusterSantasList</title>
<polygon fill="lightgray" stroke="lightgray" points="8,-147 8,-764 718.95,-764 718.95,-147 8,-147"/>
<text xml:space="preserve" text-anchor="middle" x="363.47" y="-746.7" font-family="Times New Roman,serif" font-size="14.00">SantasList</text>
</g>
<g id="clust2" class="cluster">
<title>clusterSantaToken</title>
<polygon fill="none" stroke="lightgray" points="378.86,-8 378.86,-139 458.61,-139 458.61,-8 378.86,-8"/>
<text xml:space="preserve" text-anchor="middle" x="418.74" y="-121.7" font-family="Times New Roman,serif" font-size="14.00">SantaToken</text>
</g>
<g id="clust3" class="cluster">
<title>cluster_01</title>
<polygon fill="none" stroke="black" points="47.93,-772 47.93,-923 453.24,-923 453.24,-772 47.93,-772"/>
<text xml:space="preserve" text-anchor="middle" x="250.58" y="-905.7" font-family="Times New Roman,serif" font-size="14.00">Legend</text>
</g>
<!-- SantasList.onlySanta -->
<g id="node1" class="node">
<title>SantasList.onlySanta</title>
<ellipse fill="none" stroke="yellow" cx="119.56" cy="-173" rx="47.77" ry="18"/>
<text xml:space="preserve" text-anchor="middle" x="119.56" y="-167.95" font-family="Times New Roman,serif" font-size="14.00">onlySanta</text>
</g>
<!-- SantasList.SantasList__NotSanta -->
<g id="node13" class="node">
<title>SantasList.SantasList__NotSanta</title>
<polygon fill="none" stroke="#ee3b3b" points="516.24,-191 320.24,-191 320.24,-155 516.24,-155 516.24,-191"/>
<text xml:space="preserve" text-anchor="middle" x="418.24" y="-167.95" font-family="Times New Roman,serif" font-size="14.00">SantasList.SantasList__NotSanta</text>
</g>
<!-- SantasList.onlySanta&#45;&gt;SantasList.SantasList__NotSanta -->
<g id="edge1" class="edge">
<title>SantasList.onlySanta&#45;&gt;SantasList.SantasList__NotSanta</title>
<path fill="none" stroke="red" d="M167.57,-173C205.39,-173 260.04,-173 308.57,-173"/>
<polygon fill="red" stroke="red" points="308.28,-176.5 318.28,-173 308.28,-169.5 308.28,-176.5"/>
</g>
<!-- SantasList.&lt;Constructor&gt; -->
<g id="node2" class="node">
<title>SantasList.&lt;Constructor&gt;</title>
<ellipse fill="none" stroke="green" cx="119.56" cy="-551" rx="65.68" ry="18"/>
<text xml:space="preserve" text-anchor="middle" x="119.56" y="-545.95" font-family="Times New Roman,serif" font-size="14.00">&lt;Constructor&gt;</text>
</g>
<!-- SantasList.address -->
<g id="node14" class="node">
<title>SantasList.address</title>
<ellipse fill="none" stroke="black" cx="418.24" cy="-551" rx="38.56" ry="18"/>
<text xml:space="preserve" text-anchor="middle" x="418.24" y="-545.95" font-family="Times New Roman,serif" font-size="14.00">address</text>
</g>
<!-- SantasList.&lt;Constructor&gt;&#45;&gt;SantasList.address -->
<g id="edge2" class="edge">
<title>SantasList.&lt;Constructor&gt;&#45;&gt;SantasList.address</title>
<path fill="none" stroke="green" d="M185.66,-551C240.62,-551 318.1,-551 368.01,-551"/>
<polygon fill="green" stroke="green" points="367.94,-554.5 377.94,-551 367.94,-547.5 367.94,-554.5"/>
</g>
<!-- SantasList.checkList -->
<g id="node3" class="node">
<title>SantasList.checkList</title>
<ellipse fill="none" stroke="blue" cx="119.56" cy="-281" rx="46.75" ry="18"/>
<text xml:space="preserve" text-anchor="middle" x="119.56" y="-275.95" font-family="Times New Roman,serif" font-size="14.00">checkList</text>
</g>
<!-- SantasList.checkTwice -->
<g id="node4" class="node">
<title>SantasList.checkTwice</title>
<ellipse fill="none" stroke="blue" cx="119.56" cy="-335" rx="54.93" ry="18"/>
<text xml:space="preserve" text-anchor="middle" x="119.56" y="-329.95" font-family="Times New Roman,serif" font-size="14.00">checkTwice</text>
</g>
<!-- SantasList.SantasList__SecondCheckDoesntMatchFirst -->
<g id="node15" class="node">
<title>SantasList.SantasList__SecondCheckDoesntMatchFirst</title>
<polygon fill="none" stroke="#ee3b3b" points="577.36,-245 259.11,-245 259.11,-209 577.36,-209 577.36,-245"/>
<text xml:space="preserve" text-anchor="middle" x="418.24" y="-221.95" font-family="Times New Roman,serif" font-size="14.00">SantasList.SantasList__SecondCheckDoesntMatchFirst</text>
</g>
<!-- SantasList.checkTwice&#45;&gt;SantasList.SantasList__SecondCheckDoesntMatchFirst -->
<g id="edge3" class="edge">
<title>SantasList.checkTwice&#45;&gt;SantasList.SantasList__SecondCheckDoesntMatchFirst</title>
<path fill="none" stroke="red" d="M171.96,-329C189.39,-325.1 208.2,-318.65 223.11,-308 246.59,-291.24 234.92,-269.71 259.11,-254 260.95,-252.81 262.83,-251.66 264.74,-250.56"/>
<polygon fill="red" stroke="red" points="265.95,-253.87 273.19,-246.13 262.71,-247.67 265.95,-253.87"/>
</g>
<!-- SantasList.collectPresent -->
<g id="node5" class="node">
<title>SantasList.collectPresent</title>
<ellipse fill="none" stroke="blue" cx="119.56" cy="-389" rx="62.61" ry="18"/>
<text xml:space="preserve" text-anchor="middle" x="119.56" y="-383.95" font-family="Times New Roman,serif" font-size="14.00">collectPresent</text>
</g>
<!-- SantasList._mintAndIncrement -->
<g id="node7" class="node">
<title>SantasList._mintAndIncrement</title>
<ellipse fill="none" stroke="black" cx="418.24" cy="-281" rx="86.67" ry="18"/>
<text xml:space="preserve" text-anchor="middle" x="418.24" y="-275.95" font-family="Times New Roman,serif" font-size="14.00">_mintAndIncrement</text>
</g>
<!-- SantasList.collectPresent&#45;&gt;SantasList._mintAndIncrement -->
<g id="edge7" class="edge">
<title>SantasList.collectPresent&#45;&gt;SantasList._mintAndIncrement</title>
<path fill="none" stroke="green" d="M164.96,-376.23C184.21,-371.77 206.18,-365.09 223.11,-353 246.59,-336.24 234.92,-314.71 259.11,-299 279.28,-285.91 303.82,-278.57 327.5,-274.95"/>
<polygon fill="green" stroke="green" points="327.7,-278.45 337.16,-273.69 326.8,-271.51 327.7,-278.45"/>
</g>
<!-- SantasList.collectPresent&#45;&gt;SantasList._mintAndIncrement -->
<g id="edge8" class="edge">
<title>SantasList.collectPresent&#45;&gt;SantasList._mintAndIncrement</title>
<path fill="none" stroke="green" d="M182.6,-389.05C196.8,-385.33 211.2,-379.51 223.11,-371 246.59,-354.24 234.92,-332.71 259.11,-317 280.28,-303.25 306.27,-295.86 331.03,-291.64"/>
<polygon fill="green" stroke="green" points="331.44,-295.11 340.79,-290.14 330.38,-288.2 331.44,-295.11"/>
</g>
<!-- SantasList.SantasList__NotChristmasYet -->
<g id="node16" class="node">
<title>SantasList.SantasList__NotChristmasYet</title>
<polygon fill="none" stroke="#ee3b3b" points="538.36,-407 298.11,-407 298.11,-371 538.36,-371 538.36,-407"/>
<text xml:space="preserve" text-anchor="middle" x="418.24" y="-383.95" font-family="Times New Roman,serif" font-size="14.00">SantasList.SantasList__NotChristmasYet</text>
</g>
<!-- SantasList.collectPresent&#45;&gt;SantasList.SantasList__NotChristmasYet -->
<g id="edge4" class="edge">
<title>SantasList.collectPresent&#45;&gt;SantasList.SantasList__NotChristmasYet</title>
<path fill="none" stroke="red" d="M182.39,-389C212.63,-389 250.25,-389 286.45,-389"/>
<polygon fill="red" stroke="red" points="286.11,-392.5 296.11,-389 286.11,-385.5 286.11,-392.5"/>
</g>
<!-- SantasList.balanceOf -->
<g id="node17" class="node">
<title>SantasList.balanceOf</title>
<ellipse fill="none" stroke="black" cx="418.24" cy="-443" rx="48.79" ry="18"/>
<text xml:space="preserve" text-anchor="middle" x="418.24" y="-437.95" font-family="Times New Roman,serif" font-size="14.00">balanceOf</text>
</g>
<!-- SantasList.collectPresent&#45;&gt;SantasList.balanceOf -->
<g id="edge5" class="edge">
<title>SantasList.collectPresent&#45;&gt;SantasList.balanceOf</title>
<path fill="none" stroke="green" d="M171.83,-399.29C197.93,-404.45 230.18,-410.71 259.11,-416 293.24,-422.24 331.6,-428.8 361.99,-433.89"/>
<polygon fill="green" stroke="green" points="361.29,-437.32 371.73,-435.52 362.44,-430.42 361.29,-437.32"/>
</g>
<!-- SantasList.SantasList__AlreadyCollected -->
<g id="node18" class="node">
<title>SantasList.SantasList__AlreadyCollected</title>
<polygon fill="none" stroke="#ee3b3b" points="538.74,-515 297.74,-515 297.74,-479 538.74,-479 538.74,-515"/>
<text xml:space="preserve" text-anchor="middle" x="418.24" y="-491.95" font-family="Times New Roman,serif" font-size="14.00">SantasList.SantasList__AlreadyCollected</text>
</g>
<!-- SantasList.collectPresent&#45;&gt;SantasList.SantasList__AlreadyCollected -->
<g id="edge6" class="edge">
<title>SantasList.collectPresent&#45;&gt;SantasList.SantasList__AlreadyCollected</title>
<path fill="none" stroke="red" d="M177.25,-396.25C193.13,-400.24 209.7,-406.42 223.11,-416 246.59,-432.76 234.92,-454.29 259.11,-470 267.69,-475.57 277.06,-480.1 286.82,-483.77"/>
<polygon fill="red" stroke="red" points="285.51,-487.02 296.1,-486.93 287.77,-480.39 285.51,-487.02"/>
</g>
<!-- SantasList.SantasList__NotNice -->
<g id="node19" class="node">
<title>SantasList.SantasList__NotNice</title>
<polygon fill="none" stroke="#ee3b3b" points="513.99,-353 322.49,-353 322.49,-317 513.99,-317 513.99,-353"/>
<text xml:space="preserve" text-anchor="middle" x="418.24" y="-329.95" font-family="Times New Roman,serif" font-size="14.00">SantasList.SantasList__NotNice</text>
</g>
<!-- SantasList.collectPresent&#45;&gt;SantasList.SantasList__NotNice -->
<g id="edge10" class="edge">
<title>SantasList.collectPresent&#45;&gt;SantasList.SantasList__NotNice</title>
<path fill="none" stroke="red" d="M171.83,-378.71C197.93,-373.55 230.18,-367.29 259.11,-362 275.85,-358.94 293.61,-355.8 310.95,-352.8"/>
<polygon fill="red" stroke="red" points="311.52,-356.25 320.78,-351.1 310.33,-349.35 311.52,-356.25"/>
</g>
<!-- SantaToken.mint -->
<g id="node21" class="node">
<title>SantaToken.mint</title>
<ellipse fill="none" stroke="black" cx="418.24" cy="-88" rx="28.32" ry="18"/>
<text xml:space="preserve" text-anchor="middle" x="418.24" y="-82.95" font-family="Times New Roman,serif" font-size="14.00">mint</text>
</g>
<!-- SantasList.collectPresent&#45;&gt;SantaToken.mint -->
<g id="edge9" class="edge">
<title>SantasList.collectPresent&#45;&gt;SantaToken.mint</title>
<path fill="none" stroke="orange" d="M181,-384.86C196.68,-380.92 212.21,-373.99 223.11,-362 289.49,-289.03 195.6,-218.48 259.11,-143 288.66,-107.88 341.92,-95.16 378.4,-90.57"/>
<polygon fill="orange" stroke="orange" points="378.53,-94.07 388.09,-89.51 377.77,-87.12 378.53,-94.07"/>
</g>
<!-- SantasList.buyPresent -->
<g id="node6" class="node">
<title>SantasList.buyPresent</title>
<ellipse fill="none" stroke="blue" cx="119.56" cy="-227" rx="51.86" ry="18"/>
<text xml:space="preserve" text-anchor="middle" x="119.56" y="-221.95" font-family="Times New Roman,serif" font-size="14.00">buyPresent</text>
</g>
<!-- SantasList.buyPresent&#45;&gt;SantasList._mintAndIncrement -->
<g id="edge12" class="edge">
<title>SantasList.buyPresent&#45;&gt;SantasList._mintAndIncrement</title>
<path fill="none" stroke="green" d="M165.12,-235.96C192.26,-241.35 227.65,-248.25 259.11,-254 284.89,-258.71 313.07,-263.61 338.41,-267.91"/>
<polygon fill="green" stroke="green" points="337.53,-271.31 347.97,-269.53 338.69,-264.41 337.53,-271.31"/>
</g>
<!-- SantaToken.burn -->
<g id="node22" class="node">
<title>SantaToken.burn</title>
<ellipse fill="none" stroke="black" cx="418.24" cy="-34" rx="27.81" ry="18"/>
<text xml:space="preserve" text-anchor="middle" x="418.24" y="-28.95" font-family="Times New Roman,serif" font-size="14.00">burn</text>
</g>
<!-- SantasList.buyPresent&#45;&gt;SantaToken.burn -->
<g id="edge11" class="edge">
<title>SantasList.buyPresent&#45;&gt;SantaToken.burn</title>
<path fill="none" stroke="orange" d="M171.27,-224.2C189.77,-220.7 209.47,-213.7 223.11,-200 268.15,-154.78 212.13,-104.18 259.11,-61 291.35,-31.37 343.63,-27.95 379.18,-29.72"/>
<polygon fill="orange" stroke="orange" points="378.82,-33.21 389.03,-30.39 379.29,-26.22 378.82,-33.21"/>
</g>
<!-- SantasList._safeMint -->
<g id="node20" class="node">
<title>SantasList._safeMint</title>
<ellipse fill="none" stroke="black" cx="662.15" cy="-281" rx="48.79" ry="18"/>
<text xml:space="preserve" text-anchor="middle" x="662.15" y="-275.95" font-family="Times New Roman,serif" font-size="14.00">_safeMint</text>
</g>
<!-- SantasList._mintAndIncrement&#45;&gt;SantasList._safeMint -->
<g id="edge13" class="edge">
<title>SantasList._mintAndIncrement&#45;&gt;SantasList._safeMint</title>
<path fill="none" stroke="green" d="M505.21,-281C537.22,-281 572.81,-281 601.9,-281"/>
<polygon fill="green" stroke="green" points="601.6,-284.5 611.6,-281 601.6,-277.5 601.6,-284.5"/>
</g>
<!-- SantasList.tokenURI -->
<g id="node8" class="node">
<title>SantasList.tokenURI</title>
<ellipse fill="none" stroke="green" cx="119.56" cy="-497" rx="47.26" ry="18"/>
<text xml:space="preserve" text-anchor="middle" x="119.56" y="-491.95" font-family="Times New Roman,serif" font-size="14.00">tokenURI</text>
</g>
<!-- SantasList.getSantaToken -->
<g id="node9" class="node">
<title>SantasList.getSantaToken</title>
<ellipse fill="none" stroke="blue" cx="119.56" cy="-443" rx="65.68" ry="18"/>
<text xml:space="preserve" text-anchor="middle" x="119.56" y="-437.95" font-family="Times New Roman,serif" font-size="14.00">getSantaToken</text>
</g>
<!-- SantasList.getSantaToken&#45;&gt;SantasList.address -->
<g id="edge14" class="edge">
<title>SantasList.getSantaToken&#45;&gt;SantasList.address</title>
<path fill="none" stroke="green" d="M179.39,-450.8C194.61,-454.8 210.3,-460.85 223.11,-470 246.59,-486.76 234.92,-508.29 259.11,-524 291.39,-544.96 334.9,-551.16 368.11,-552.43"/>
<polygon fill="green" stroke="green" points="367.8,-555.92 377.88,-552.65 367.96,-548.92 367.8,-555.92"/>
</g>
<!-- SantasList.getNaughtyOrNiceOnce -->
<g id="node10" class="node">
<title>SantasList.getNaughtyOrNiceOnce</title>
<ellipse fill="none" stroke="blue" cx="119.56" cy="-605" rx="100.48" ry="18"/>
<text xml:space="preserve" text-anchor="middle" x="119.56" y="-599.95" font-family="Times New Roman,serif" font-size="14.00">getNaughtyOrNiceOnce</text>
</g>
<!-- SantasList.getNaughtyOrNiceTwice -->
<g id="node11" class="node">
<title>SantasList.getNaughtyOrNiceTwice</title>
<ellipse fill="none" stroke="blue" cx="119.56" cy="-659" rx="103.56" ry="18"/>
<text xml:space="preserve" text-anchor="middle" x="119.56" y="-653.95" font-family="Times New Roman,serif" font-size="14.00">getNaughtyOrNiceTwice</text>
</g>
<!-- SantasList.getSanta -->
<g id="node12" class="node">
<title>SantasList.getSanta</title>
<ellipse fill="none" stroke="blue" cx="119.56" cy="-713" rx="42.65" ry="18"/>
<text xml:space="preserve" text-anchor="middle" x="119.56" y="-707.95" font-family="Times New Roman,serif" font-size="14.00">getSanta</text>
</g>
<!-- key -->
<g id="node23" class="node">
<title>key</title>
<text xml:space="preserve" text-anchor="start" x="104.93" y="-871.5" font-family="Times New Roman,serif" font-size="14.00">Internal Call</text>
<text xml:space="preserve" text-anchor="start" x="101.18" y="-851" font-family="Times New Roman,serif" font-size="14.00">External Call</text>
<text xml:space="preserve" text-anchor="start" x="71.93" y="-830.5" font-family="Times New Roman,serif" font-size="14.00">Custom Error Call</text>
<text xml:space="preserve" text-anchor="start" x="79.43" y="-810" font-family="Times New Roman,serif" font-size="14.00">Defined Contract</text>
<text xml:space="preserve" text-anchor="start" x="65.93" y="-789.5" font-family="Times New Roman,serif" font-size="14.00">Undefined Contract</text>
</g>
<!-- key2 -->
<g id="node24" class="node">
<title>key2</title>
<text xml:space="preserve" text-anchor="start" x="412.61" y="-871" font-family="Times New Roman,serif" font-size="14.00">   </text>
<text xml:space="preserve" text-anchor="start" x="412.61" y="-850.5" font-family="Times New Roman,serif" font-size="14.00">   </text>
<polygon fill="lightgray" stroke="none" points="408.24,-824.25 408.24,-844.75 428.24,-844.75 428.24,-824.25 408.24,-824.25"/>
<text xml:space="preserve" text-anchor="start" x="412.61" y="-830" font-family="Times New Roman,serif" font-size="14.00">   </text>
<polygon fill="none" stroke="lightgray" points="410.24,-806.25 410.24,-822.25 426.24,-822.25 426.24,-806.25 410.24,-806.25"/>
</g>
<!-- key&#45;&gt;key2 -->
<g id="edge15" class="edge">
<title>key:e&#45;&gt;key2:w</title>
<path fill="none" stroke="green" d="M176.18,-876C274.96,-876 302.48,-875.54 395.83,-875.5"/>
<polygon fill="green" stroke="green" points="395.72,-879 405.72,-875.5 395.72,-872 395.72,-879"/>
</g>
<!-- key&#45;&gt;key2 -->
<g id="edge16" class="edge">
<title>key:e&#45;&gt;key2:w</title>
<path fill="none" stroke="orange" d="M176.18,-855.5C274.96,-846.84 302.48,-846.05 395.83,-854.01"/>
<polygon fill="orange" stroke="orange" points="395.46,-857.49 405.73,-854.87 396.07,-850.52 395.46,-857.49"/>
</g>
<!-- key&#45;&gt;key2 -->
<g id="edge17" class="edge">
<title>key:e&#45;&gt;key2:w</title>
<path fill="none" stroke="red" d="M176.18,-855.5C274.96,-864.16 302.48,-864.02 395.83,-855.99"/>
<polygon fill="red" stroke="red" points="396.07,-859.48 405.73,-855.13 395.46,-852.51 396.07,-859.48"/>
</g>
</g>
</svg>
